<?xml version="1.0" standalone="no"?>
<!DOCTYPE svg PUBLIC "-//W3C//DTD SVG 20010904//EN"
 "http://www.w3.org/TR/2001/REC-SVG-20010904/DTD/svg10.dtd">
<svg version="1.0" xmlns="http://www.w3.org/2000/svg"
 width="192.000000pt" height="192.000000pt" viewBox="0 0 192.000000 192.000000"
 preserveAspectRatio="xMidYMid meet">
<metadata>
Created by potrace 1.11, written by Peter Selinger 2001-2013
</metadata>
<g transform="translate(0.000000,192.000000) scale(0.100000,-0.100000)"
fill="#000000" stroke="none">
<path d="M104 1894 c-37 -18 -66 -48 -81 -85 -11 -26 -17 -1626 -6 -1682 7
-37 64 -94 104 -104 19 -5 403 -9 854 -8 803 0 821 1 855 20 20 12 44 38 57
63 l21 43 0 821 c0 651 -3 827 -13 852 -16 38 -50 71 -88 85 -19 8 -292 11
-850 11 -722 0 -826 -2 -853 -16z"/>
</g>
</svg>
